<svg width="456" height="163" viewBox="0 0 456 163" fill="none" xmlns="http://www.w3.org/2000/svg">
<path fill-rule="evenodd" clip-rule="evenodd" d="M0 43.3925V86.785H69.054H138.108V82.3345V77.884H76.3411H14.5742V44.7833V11.6826H99.9375H185.301V28.3692V45.0553L124.401 45.1977L63.5019 45.3396L63.2993 49.651L63.0966 53.9625H131.139H199.181V26.9812V0H99.5905H0V43.3925ZM39.5586 50.0388V54.4598L46.3252 54.3502L53.0918 54.2406L53.2944 49.9292L53.4971 45.6177H46.5278H39.5586V50.0388ZM185.133 88.593L184.954 115.991H99.7258H14.4979L14.5124 104.726L14.527 93.4607H7.26351H0V110.428V127.396H46.1517H92.3034L92.3568 138.661C92.3859 144.857 92.5143 150.365 92.642 150.9C92.86 151.814 91.2006 151.874 65.5708 151.874H38.267L38.0456 153.125C37.9235 153.814 37.9256 156.317 38.0498 158.689L38.2761 163H99.9902H161.704V157.437V151.874H134.291H106.878V139.635V127.396H153.029H199.181V94.2952V61.1945H192.247H185.314L185.133 88.593ZM148.287 78.255C148.032 78.4586 147.824 80.4614 147.824 82.7055V86.785H154.764H161.704V82.3345V77.884H155.227C151.664 77.884 148.541 78.0508 148.287 78.255ZM209.765 85.4843C209.1 85.6991 208.897 89.2828 208.897 100.751V115.737L222.604 115.586L236.31 115.435L236.52 111.87C236.665 109.394 236.453 108.164 235.826 107.845C235.329 107.592 231.721 107.382 227.809 107.377L220.695 107.369V105.978C220.695 104.628 220.838 104.587 225.496 104.587C232.394 104.587 232.493 104.528 232.493 100.415C232.493 96.3013 232.394 96.2423 225.496 96.2423C220.855 96.2423 220.695 96.1967 220.695 94.8699C220.695 93.5014 220.718 93.4969 228.503 93.34L236.31 93.1826L236.52 89.6172C236.665 87.141 236.453 85.9116 235.826 85.5922C234.868 85.1055 211.239 85.0076 209.765 85.4843ZM243.366 85.4871C243.112 85.6907 242.904 92.5751 242.904 100.786V115.713H248.456H254.008V108.481C254.008 104.504 254.265 101.249 254.58 101.249C254.895 101.249 256.848 102.919 258.918 104.961C262.356 108.35 262.713 108.966 263.03 112.054L263.377 115.435H268.929H274.481L274.666 100.731C274.81 89.339 274.654 85.9271 273.972 85.5806C272.852 85.0103 265.037 84.9948 263.927 85.56C263.405 85.8253 263.012 87.8092 262.886 90.801L262.683 95.6153L257.825 90.8828C255.153 88.2798 252.244 85.9171 251.36 85.6328C249.508 85.037 244.051 84.9375 243.366 85.4871ZM280.149 85.4871C279.894 85.6907 279.686 87.5683 279.686 89.6594V93.4607H284.197H288.708L288.719 103.892C288.725 109.629 288.986 114.647 289.3 115.043C289.707 115.558 291.437 115.717 295.362 115.599L300.853 115.435L301.042 104.473L301.23 93.5108L305.9 93.3467L310.57 93.1826L310.786 90.4377C310.906 88.9285 310.822 87.1132 310.599 86.4045L310.196 85.116H295.404C287.268 85.116 280.403 85.2829 280.149 85.4871ZM316.642 85.4515C315.979 85.6913 315.775 89.2978 315.775 100.739V115.713H321.253C327.641 115.713 327.573 115.774 327.573 110.105V106.256H332.056H336.539L336.741 110.846L336.942 115.435L342.668 115.596L348.393 115.758V109.381C348.393 103.331 348.301 102.915 346.596 101.292C345.608 100.351 344.342 99.5802 343.781 99.5802C342.904 99.5802 342.913 99.4083 343.843 98.3435C345.231 96.7552 345.288 90.633 343.934 88.5346C342.282 85.9733 340.022 85.5094 328.267 85.3152C322.35 85.2173 317.12 85.279 316.642 85.4515ZM362.157 85.491C360.999 85.7363 356.058 95.0857 354.592 99.8027C354.203 101.057 353.976 105.088 354.088 108.759L354.292 115.435L359.436 115.6C365.43 115.793 365.718 115.601 365.733 111.402L365.743 108.481H370.221H374.7L374.906 111.958L375.113 115.435H380.665H386.217L386.438 109.316C386.56 105.95 386.313 101.918 385.89 100.356C384.835 96.4582 379.864 86.138 378.776 85.5845C377.869 85.1233 364.251 85.0465 362.157 85.491ZM227.141 89.4197C225.15 89.5315 221.715 89.5326 219.506 89.4219C217.297 89.3112 218.926 89.2194 223.124 89.2183C227.323 89.2172 229.13 89.3079 227.141 89.4197ZM287.132 89.3463C286.902 89.531 286.303 89.551 285.802 89.3902C285.249 89.2127 285.413 89.0809 286.222 89.0542C286.953 89.0303 287.363 89.1616 287.132 89.3463ZM304.16 89.4019C303.306 89.5337 301.745 89.5371 300.69 89.4097C299.635 89.2817 300.333 89.1738 302.241 89.1693C304.15 89.1655 305.013 89.27 304.16 89.4019ZM325.303 89.3463C325.072 89.531 324.473 89.551 323.973 89.3902C323.419 89.2127 323.584 89.0809 324.392 89.0542C325.124 89.0303 325.533 89.1616 325.303 89.3463ZM371.801 89.3463C371.571 89.531 370.972 89.551 370.472 89.3902C369.918 89.2127 370.082 89.0809 370.891 89.0542C371.622 89.0303 372.032 89.1616 371.801 89.3463ZM255.222 94.8081C258.372 97.6832 260.948 100.178 260.948 100.353C260.948 100.528 258.536 98.4859 255.588 95.8145C252.64 93.1431 249.751 90.6525 249.168 90.2798C248.585 89.907 248.421 89.5972 248.803 89.5916C249.184 89.586 252.073 91.9337 255.222 94.8081ZM221.589 100.252L227.982 100.367L221.587 100.551L215.191 100.734L214.966 106.416C214.843 109.54 214.741 107.09 214.739 100.971C214.739 94.8515 214.841 92.1606 214.966 94.9906L215.195 100.137L221.589 100.252ZM269.1 106.117C268.975 109.1 268.873 106.659 268.873 100.693C268.873 94.7264 268.975 92.2853 269.1 95.2688C269.224 98.2523 269.224 103.133 269.1 106.117ZM321.834 99.1797C321.688 100.471 321.571 99.2742 321.573 96.5205C321.575 93.7667 321.695 92.7103 321.838 94.1728C321.981 95.6354 321.979 97.8884 321.834 99.1797ZM333.251 94.2952C334.541 96.5644 333.066 98.4676 330.016 98.4676H327.573V95.686V92.9044H330.016C331.95 92.9044 332.626 93.1948 333.251 94.2952ZM372.382 96.3814C373.041 97.9875 373.724 99.6153 373.9 99.9974C374.133 100.505 373.093 100.693 370.045 100.693H365.869L367.335 97.0768C369.218 92.4366 370.681 92.2346 372.382 96.3814ZM360.944 99.0823C360.579 99.815 360.259 100.122 360.235 99.7649C360.177 98.8965 360.985 97.2493 361.333 97.5285C361.485 97.6504 361.31 98.3491 360.944 99.0823ZM337.98 100.533C337.224 101.478 337.204 101.477 337.583 100.508C337.803 99.9479 338.008 99.1969 338.038 98.8392C338.077 98.3702 338.188 98.3769 338.434 98.8637C338.622 99.2347 338.417 99.9858 337.98 100.533ZM360.009 109.177C359.869 110.783 359.754 109.469 359.754 106.256C359.754 103.043 359.869 101.729 360.009 103.335C360.149 104.941 360.149 107.571 360.009 109.177ZM380.829 109.177C380.689 110.783 380.574 109.469 380.574 106.256C380.574 103.043 380.689 101.729 380.829 103.335C380.969 104.941 380.969 107.571 380.829 109.177ZM336.942 101.805C337.178 102.111 336.866 102.362 336.248 102.362C335.63 102.362 335.318 102.111 335.554 101.805C335.79 101.499 336.102 101.249 336.248 101.249C336.394 101.249 336.706 101.499 336.942 101.805ZM326.358 102.174C325.882 102.328 325.101 102.328 324.623 102.174C324.147 102.02 324.537 101.893 325.491 101.893C326.445 101.893 326.836 102.02 326.358 102.174ZM265.112 103.753C266.009 104.517 266.586 105.143 266.395 105.143C266.204 105.143 265.315 104.517 264.418 103.753C263.521 102.988 262.944 102.362 263.135 102.362C263.326 102.362 264.215 102.988 265.112 103.753ZM342.649 109.733C342.495 110.728 342.369 109.914 342.369 107.925C342.369 105.936 342.495 105.122 342.649 106.117C342.803 107.112 342.803 108.738 342.649 109.733ZM321.83 109.723C321.675 110.723 321.545 110.039 321.542 108.203C321.538 106.367 321.664 105.549 321.823 106.385C321.981 107.221 321.984 108.723 321.83 109.723ZM212.367 129.899C211.72 130.525 211.587 133.274 211.837 140.887C212.152 150.481 212.282 151.269 214.212 155.212L216.253 159.384H221.398H226.543L228.166 155.073C229.059 152.701 230.076 150.761 230.423 150.761C231.341 150.761 232.189 152.292 233.196 155.768C233.684 157.451 234.428 159.012 234.85 159.237C235.272 159.461 237.692 159.649 240.228 159.654L244.838 159.662L246.803 155.907C248.7 152.284 248.778 151.764 249.012 141.085C249.205 132.33 249.064 129.92 248.336 129.55C247.034 128.888 240.3 128.952 238.694 129.641C237.472 130.165 237.346 130.899 237.293 137.846L237.234 145.476L235.884 143.122C234.279 140.324 232.459 139.412 229.397 139.872C227.531 140.153 226.919 140.641 225.865 142.69C225.164 144.053 224.46 145.063 224.301 144.935C224.141 144.807 224.061 141.538 224.124 137.671C224.199 132.982 223.965 130.377 223.422 129.851C222.257 128.727 213.543 128.764 212.367 129.899ZM256.945 129.529C256.264 129.876 256.108 133.288 256.251 144.68L256.437 159.384H270.317H284.197L284.403 156.251C284.707 151.618 283.982 151.231 275.261 151.365L268.235 151.472L268.016 150.004C267.796 148.541 267.812 148.536 272.643 148.536C279.59 148.536 279.686 148.479 279.686 144.373C279.686 140.913 279.669 140.884 277.517 140.539C276.324 140.347 273.67 140.191 271.618 140.191C268.115 140.191 267.888 140.108 267.888 138.818V137.445L276.043 137.288L284.197 137.131L284.403 133.998C284.725 129.094 284.637 129.063 270.094 129.073C263.346 129.078 257.429 129.283 256.945 129.529ZM290.952 129.529C290.27 129.876 290.114 133.288 290.258 144.68L290.443 159.384H304.208H317.973L319.997 157.567C321.91 155.85 322.021 155.48 322.021 150.827C322.021 145.575 320.942 143.479 317.833 142.688C316.572 142.367 316.544 142.239 317.504 141.141C318.18 140.367 318.551 138.643 318.551 136.27C318.551 131.913 317.3 130.591 312.305 129.668C308.623 128.989 292.224 128.882 290.952 129.529ZM334.704 129.605C331.566 130.203 329.014 131.661 328.236 133.302C327.871 134.071 327.573 136.756 327.573 139.269C327.573 145.991 329.175 147.325 338.654 148.498C343.488 149.097 345.536 149.943 344.373 150.863C344.103 151.077 340.786 151.301 337.002 151.36C327.068 151.517 327.476 151.327 327.717 155.7L327.92 159.384L338.047 159.538C349.935 159.718 352.774 159.193 355.134 156.381C356.435 154.832 356.721 153.742 356.721 150.346C356.721 145.54 355.469 142.904 352.697 141.874C351.666 141.491 348.324 140.888 345.27 140.535C340.468 139.979 339.718 139.744 339.718 138.79C339.718 137.769 340.27 137.676 347.179 137.53L354.639 137.372V133.556C354.639 130.59 354.395 129.665 353.541 129.403C352.008 128.931 337.421 129.088 334.704 129.605ZM362.411 129.541C361.783 129.86 361.572 131.09 361.717 133.566L361.926 137.131L365.243 137.302L368.56 137.472L368.366 144.534L368.172 151.596L366.09 151.675C361.139 151.864 361.497 151.539 361.721 155.629L361.926 159.384L374.592 159.536L387.258 159.687L387.34 156.754C387.429 153.584 387.293 152.29 386.832 151.91C386.67 151.776 385.278 151.526 383.738 151.354L380.938 151.039L380.87 144.363L380.803 137.688L384.03 137.518C387.14 137.354 387.26 137.284 387.311 135.571C387.34 134.593 387.474 133.325 387.609 132.753C387.744 132.18 387.571 131.117 387.226 130.388C386.599 129.067 386.582 129.065 374.956 129.073C368.553 129.078 362.908 129.288 362.411 129.541ZM392.253 129.541C391.626 129.86 391.414 131.09 391.559 133.566L391.769 137.131L396.439 137.295L401.109 137.46L401.297 148.422L401.485 159.384H407.384H413.283L413.434 149.37C413.518 143.863 413.596 138.931 413.608 138.41C413.626 137.639 414.437 137.432 417.968 137.297L422.305 137.131L422.515 133.566C422.66 131.09 422.448 129.86 421.821 129.541C421.324 129.288 414.671 129.082 407.037 129.082C399.403 129.082 392.75 129.288 392.253 129.541ZM428.366 129.529C427.684 129.876 427.528 133.288 427.672 144.68L427.857 159.384H441.738H455.618L455.827 156.48C456.176 151.637 455.585 151.242 448.111 151.321C438.859 151.419 439.308 151.49 439.308 149.927C439.308 148.577 439.451 148.536 444.11 148.536C451.006 148.536 451.107 148.476 451.107 144.369C451.107 140.317 450.917 140.212 443.646 140.199C439.485 140.192 439.308 140.135 439.308 138.8V137.41H446.539C450.515 137.41 454.263 137.258 454.867 137.072C456.217 136.657 456.429 130.772 455.132 129.732C454.171 128.962 429.844 128.778 428.366 129.529ZM275.002 133.369C272.997 133.481 269.718 133.481 267.714 133.369C265.711 133.257 267.35 133.165 271.358 133.165C275.366 133.165 277.006 133.257 275.002 133.369ZM304.497 133.364C303.066 133.484 300.724 133.484 299.292 133.364C297.861 133.244 299.032 133.146 301.894 133.146C304.757 133.146 305.929 133.244 304.497 133.364ZM346.485 133.366C344.863 133.484 342.207 133.484 340.586 133.366C338.964 133.249 340.291 133.153 343.535 133.153C346.78 133.153 348.107 133.249 346.485 133.366ZM381.185 133.352C380.327 133.484 378.921 133.484 378.062 133.352C377.204 133.219 377.906 133.11 379.624 133.11C381.341 133.11 382.044 133.219 381.185 133.352ZM403.046 133.357C401.996 133.485 400.279 133.485 399.229 133.357C398.179 133.23 399.039 133.126 401.138 133.126C403.237 133.126 404.097 133.23 403.046 133.357ZM407.208 150.036C407.086 153.341 406.984 150.789 406.984 144.363C406.983 137.938 407.084 135.233 407.207 138.353C407.331 141.472 407.331 146.729 407.208 150.036ZM415.539 133.357C414.489 133.485 412.772 133.485 411.722 133.357C410.672 133.23 411.531 133.126 413.63 133.126C415.729 133.126 416.589 133.23 415.539 133.357ZM446.075 133.37C443.88 133.48 440.289 133.48 438.094 133.37C435.899 133.26 437.695 133.169 442.085 133.169C446.474 133.169 448.27 133.26 446.075 133.37ZM242.925 150.902L242.214 152.708L242.559 150.831C242.749 149.798 242.972 145.417 243.056 141.095L243.21 133.237L243.423 141.167C243.541 145.565 243.319 149.901 242.925 150.902ZM268.782 144.201L275.175 144.316L268.78 144.5L262.384 144.683L262.159 150.364C262.035 153.489 261.933 151.039 261.932 144.92C261.931 138.8 262.033 136.109 262.159 138.939L262.388 144.085L268.782 144.201ZM440.202 144.201L446.596 144.316L440.2 144.5L433.804 144.683L433.579 150.364C433.456 153.489 433.354 151.039 433.353 144.92C433.352 138.8 433.454 136.109 433.579 138.939L433.808 144.085L440.202 144.201ZM374.589 149.788C374.463 152.618 374.36 150.302 374.36 144.642C374.36 138.981 374.463 136.666 374.589 139.496C374.715 142.326 374.715 146.958 374.589 149.788ZM333.628 140.32C333.473 141.32 333.344 140.636 333.34 138.8C333.336 136.965 333.462 136.146 333.621 136.982C333.779 137.818 333.782 139.32 333.628 140.32ZM308.141 138.8C308.141 140.737 308.124 140.747 305.018 140.747C301.911 140.747 301.894 140.737 301.894 138.8C301.894 136.864 301.911 136.853 305.018 136.853C308.124 136.853 308.141 136.864 308.141 138.8ZM313.489 140.33C313.323 141.018 313.187 140.455 313.187 139.078C313.187 137.702 313.323 137.139 313.489 137.827C313.654 138.515 313.654 139.642 313.489 140.33ZM312.391 143.121C311.705 143.666 311.626 143.602 312.002 142.81C312.263 142.261 312.651 141.952 312.865 142.124C313.078 142.295 312.865 142.744 312.391 143.121ZM335.901 142.973C336.798 143.437 336.78 143.513 335.768 143.521C335.123 143.525 334.402 143.279 334.166 142.973C333.623 142.268 334.542 142.268 335.901 142.973ZM315.601 145.347C316.079 145.646 316.469 146.224 316.469 146.632C316.469 147.079 315.794 146.832 314.765 146.007C313.151 144.713 312.594 144.636 304.181 144.531L295.301 144.422L302.935 144.114C310.231 143.821 313.706 144.159 315.601 145.347ZM339.545 143.897C339.068 144.052 338.287 144.052 337.81 143.897C337.333 143.743 337.723 143.617 338.677 143.617C339.631 143.617 340.022 143.743 339.545 143.897ZM348.342 145.393C349.268 145.745 350.163 146.408 350.33 146.867C350.558 147.491 350.395 147.461 349.687 146.749C349.166 146.225 346.866 145.423 344.576 144.967C341.022 144.259 340.869 144.182 343.535 144.445C345.253 144.615 347.416 145.041 348.342 145.393ZM310.666 148.815C310.886 149.275 310.871 150.276 310.631 151.04C310.228 152.329 309.893 152.43 306.045 152.43H301.894V150.205V147.98H306.08C309.164 147.98 310.372 148.2 310.666 148.815ZM350.965 151.456C350.799 152.145 350.664 151.582 350.664 150.205C350.664 148.828 350.799 148.265 350.965 148.953C351.13 149.641 351.13 150.768 350.965 151.456ZM218.379 150.344C218.186 150.727 218.029 150.413 218.029 149.648C218.029 148.884 218.186 148.571 218.379 148.953C218.572 149.336 218.572 149.962 218.379 150.344ZM316.947 151.178C316.773 151.713 316.63 151.276 316.63 150.205C316.63 149.134 316.773 148.696 316.947 149.231C317.122 149.766 317.122 150.643 316.947 151.178ZM224.25 152.806C223.432 153.933 223.235 153.572 223.904 152.174C224.142 151.676 224.483 151.386 224.662 151.53C224.841 151.673 224.655 152.247 224.25 152.806ZM219.087 153.091C218.866 153.534 218.701 153.402 218.668 152.754C218.638 152.168 218.802 151.84 219.032 152.024C219.263 152.209 219.288 152.689 219.087 153.091ZM238.024 153.821C238.024 154.127 237.721 154.002 237.352 153.543C236.982 153.084 236.679 152.458 236.679 152.152C236.679 151.846 236.982 151.971 237.352 152.43C237.721 152.889 238.024 153.515 238.024 153.821ZM315.482 154.53C314.287 155.447 314.272 155.435 315.15 154.263C315.656 153.589 316.219 153.157 316.401 153.303C316.584 153.449 316.17 154.001 315.482 154.53ZM221.736 155.389C222.831 155.63 222.769 155.673 221.443 155.593C220.519 155.536 219.637 155.114 219.482 154.655C219.297 154.104 219.396 154.035 219.775 154.452C220.09 154.799 220.973 155.22 221.736 155.389ZM240.575 155.653C239.866 155.774 238.983 155.629 238.613 155.333C238.179 154.985 238.635 154.907 239.901 155.114C241.354 155.351 241.529 155.491 240.575 155.653Z" fill="#1E1E1E"/>
</svg>
