<svg width="215" height="215" viewBox="0 0 215 215" fill="none" xmlns="http://www.w3.org/2000/svg">
<path fill-rule="evenodd" clip-rule="evenodd" d="M107.5 215C166.871 215 215 166.871 215 107.5C215 48.1294 166.871 0 107.5 0C48.1294 0 0 48.1294 0 107.5C0 133.729 9.39355 157.764 25 176.424V75.7477C25 70.5103 27.0808 65.4874 30.7847 61.784C34.4885 58.0806 39.512 56 44.75 56H163.25C168.488 56 173.512 58.0806 177.215 61.784C180.919 65.4874 183 70.5103 183 75.7477V154.739C183 159.976 180.919 164.999 177.215 168.702C173.512 172.406 168.488 174.486 163.25 174.486H68.5883C65.9694 174.487 63.4581 175.528 61.6066 177.379L44.4244 194.56C62.1409 207.418 83.935 215 107.5 215ZM36.6611 188.36L54.625 170.399C58.328 166.695 63.3506 164.614 68.5883 164.613H163.25C165.869 164.613 168.381 163.572 170.233 161.721C172.085 159.869 173.125 157.357 173.125 154.739V75.7477C173.125 73.129 172.085 70.6176 170.233 68.7659C168.381 66.9142 165.869 65.8739 163.25 65.8739H44.75C42.131 65.8739 39.6193 66.9142 37.7673 68.7659C35.9154 70.6176 34.875 73.129 34.875 75.7477V186.759C35.4644 187.299 36.0598 187.833 36.6611 188.36Z" fill="#1E1E1E"/>
<g clip-path="url(#clip0_14_67)">
<path d="M106.5 150C125.554 150 141 134.554 141 115.5C141 96.4462 125.554 81 106.5 81C87.4462 81 72 96.4462 72 115.5C72 134.554 87.4462 150 106.5 150Z" fill="#1E1E1E"/>
<path d="M121 102.649C116.944 102.649 112.959 105.183 109.885 107.847C110.654 108.687 111.388 109.559 112.083 110.461C112.413 110.896 112.894 111.485 113.488 112.152C115.857 110.074 118.642 108.234 121 108.234C125.005 108.234 128.264 111.492 128.264 115.498C128.264 119.504 125.005 122.762 121 122.762C116.52 122.762 110.489 116.138 108.729 113.815C107.867 112.673 100.064 102.649 91.9985 102.649C84.9125 102.649 79.1472 108.414 79.1472 115.5C79.1472 122.586 84.9125 128.349 91.9985 128.349C95.9372 128.349 99.805 125.957 102.841 123.377C101.996 122.468 101.193 121.519 100.436 120.535C100.053 120.038 99.6543 119.554 99.2396 119.084C96.932 121.062 94.2678 122.762 91.9985 122.762C87.9926 122.762 84.7343 119.504 84.7343 115.498C84.7343 111.492 87.9926 108.234 91.9985 108.234C96.4796 108.234 102.509 114.858 104.269 117.181C105.131 118.323 112.934 128.347 121 128.347C124.406 128.344 127.673 126.989 130.081 124.58C132.49 122.171 133.845 118.905 133.849 115.498C133.846 112.091 132.491 108.825 130.082 106.416C127.673 104.006 124.406 102.652 121 102.649V102.649Z" fill="white"/>
</g>
<defs>
<clipPath id="clip0_14_67">
<rect width="69" height="69" fill="white" transform="translate(72 81)"/>
</clipPath>
</defs>
</svg>
