<svg width="215" height="215" viewBox="0 0 215 215" fill="none" xmlns="http://www.w3.org/2000/svg">
<path fill-rule="evenodd" clip-rule="evenodd" d="M107.5 215C166.871 215 215 166.871 215 107.5C215 48.1294 166.871 0 107.5 0C48.1294 0 0 48.1294 0 107.5C0 161.901 40.4086 206.863 92.8477 214.01C93.0382 213.119 93.5048 212.305 94.1897 211.688L140.611 169.89C143.183 167.57 144.727 164.321 144.901 160.857L146.514 129.326L126.546 147.306L126.015 157.818C125.955 158.974 125.438 160.057 124.579 160.83C123.72 161.602 122.588 162.001 121.432 161.938C120.86 161.907 120.3 161.764 119.783 161.516C119.266 161.268 118.802 160.921 118.418 160.495C117.644 159.633 117.242 158.5 117.302 157.345L119.192 120.394C119.458 115.197 117.969 113.777 117.199 113.26C115.916 112.382 114.129 112.193 111.545 112.005C110.339 111.916 109.486 112.191 108.696 113.137C107.716 114.326 106.49 117.039 106.196 122.791L105.432 137.731L105.245 141.259C105.217 141.832 105.075 142.394 104.83 142.911C104.584 143.429 104.238 143.893 103.812 144.276C98.8027 148.787 93.7957 153.366 91.2401 158.182C90.0172 160.481 89.5024 162.578 89.6848 164.564C89.8634 166.506 90.7456 168.814 93.1586 171.493C93.9333 172.354 94.3354 173.486 94.2764 174.641C94.2173 175.796 93.7019 176.879 92.8435 177.652L83.1346 186.394C80.5597 188.712 77.1669 189.91 73.7025 189.724C70.2382 189.539 66.9862 187.984 64.6619 185.402L23.7639 139.981C21.4396 137.399 20.2334 134.003 20.4105 130.538C20.5878 127.073 22.134 123.824 24.709 121.505L108.853 45.7419C111.428 43.4234 114.821 42.2253 118.285 42.4113C121.749 42.5972 125.001 44.1518 127.326 46.7332L168.224 92.1551C170.548 94.7365 171.754 98.1332 171.577 101.598C171.4 105.063 169.854 108.312 167.279 110.63L155.673 121.08L153.614 161.331C153.318 167.103 150.743 172.516 146.454 176.379L103.636 214.932C104.919 214.977 106.207 215 107.5 215ZM103.166 95.4938C106.624 96.7079 109.722 98.7728 112.175 101.498C112.729 102.11 113.249 102.752 113.732 103.422L112.6 103.336L112.188 103.308C110.263 103.118 108.323 103.408 106.541 104.152C104.759 104.896 103.189 106.07 101.973 107.57C99.2682 110.84 97.819 115.752 97.4833 122.317L96.7196 137.245L96.6881 137.861C93.0284 137.969 89.3982 137.153 86.1324 135.488C82.8668 133.823 80.0709 131.364 78.0028 128.336C75.9347 125.309 74.6611 121.811 74.2994 118.165C73.9379 114.52 74.4999 110.844 75.9337 107.477C77.3676 104.111 79.627 101.162 82.5033 98.903C85.3798 96.6439 88.7806 95.1474 92.392 94.5515C96.0033 93.9557 99.7087 94.2798 103.166 95.4938ZM62.3706 169.841L65.6069 166.927C67.673 165.067 70.28 163.916 73.0492 163.641C75.8184 163.366 78.605 163.983 81.0039 165.401C81.319 168.415 82.3547 171.311 84.0236 173.844L80.5283 176.991L77.6071 173.747C76.8323 172.886 75.7483 172.368 74.5935 172.306C73.4387 172.244 72.3079 172.643 71.4495 173.416L68.2131 176.33L62.3706 169.841ZM107.908 64.2171L104.986 60.9727L111.459 55.1447L114.38 58.3892C115.155 59.2496 116.239 59.7679 117.394 59.8298C118.549 59.8918 119.68 59.4924 120.538 58.7196L123.774 55.8056L129.617 62.2945L126.381 65.2084C123.806 67.5269 120.413 68.725 116.948 68.5391C113.484 68.3532 110.232 66.7986 107.908 64.2171ZM145.453 100.196C145.63 96.7313 147.176 93.4823 149.751 91.1638L152.987 88.2498L158.83 94.7386L155.593 97.6526C154.735 98.4254 154.22 99.5084 154.161 100.663C154.102 101.818 154.504 102.951 155.278 103.811L158.2 107.055L151.727 112.883L148.806 109.639C146.481 107.058 145.275 103.661 145.453 100.196ZM46.535 131.94C46.3578 135.404 44.8116 138.653 42.2367 140.972L39.0004 143.886L33.1578 137.397L36.394 134.483C37.2524 133.71 37.7678 132.627 37.8269 131.472C37.886 130.317 37.4839 129.185 36.7091 128.325L33.7878 125.08L40.2604 119.252L43.1818 122.497C45.506 125.078 46.7123 128.475 46.535 131.94Z" fill="#1E1E1E"/>
</svg>
