<svg width="215" height="215" viewBox="0 0 215 215" fill="none" xmlns="http://www.w3.org/2000/svg">
<path fill-rule="evenodd" clip-rule="evenodd" d="M107.5 215C166.871 215 215 166.871 215 107.5C215 48.1294 166.871 0 107.5 0C48.1294 0 0 48.1294 0 107.5C0 127.514 5.46915 146.25 14.9944 162.296L39.4595 137.645C43.0561 146.751 48.3357 154.812 55.2983 161.827C62.2609 168.843 70.261 174.163 79.2986 177.786L55.6003 201.664C70.9869 210.163 88.6786 215 107.5 215ZM163.818 131.931C165.939 125.705 167 120.78 167 117.156C167 115.763 166.608 114.601 165.824 113.672C165.04 112.743 163.957 112.278 162.573 112.278C161.743 112.278 158.493 113.927 152.821 117.226C147.15 120.525 140.902 124.288 134.077 128.516C127.253 132.744 123.61 134.997 123.149 135.276L96.4515 120.362V89.1412L136.982 65.5861C138.458 64.564 139.196 63.2631 139.196 61.6835C139.196 60.1039 138.458 58.803 136.982 57.7809C132.925 54.9933 127.968 52.8329 122.112 51.2998C116.256 49.7666 110.653 49 105.305 49C88.2439 49 73.6501 55.1095 61.5232 67.3284C49.3962 79.5473 43.3327 94.2518 43.3327 111.442C43.3327 128.632 49.3962 143.336 61.5232 155.555C73.6501 167.774 88.2439 173.884 105.305 173.884C118.308 173.884 130.227 170.004 141.063 162.246C151.899 154.487 159.484 144.382 163.818 131.931Z" fill="#1E1E1E"/>
<mask id="path-2-inside-1_12_50" fill="white">
<path d="M139.72 100.4C139.88 99.113 140 97.826 140 96.5C140 95.174 139.88 93.887 139.72 92.6H146.48C146.8 93.848 147 95.1545 147 96.5C147 97.8455 146.8 99.152 146.48 100.4M136.18 111.242C137.38 109.077 138.3 106.738 138.94 104.3H144.84C142.902 107.553 139.828 110.017 136.18 111.242M135.68 100.4H126.32C126.12 99.113 126 97.826 126 96.5C126 95.174 126.12 93.8675 126.32 92.6H135.68C135.86 93.8675 136 95.174 136 96.5C136 97.826 135.86 99.113 135.68 100.4ZM131 112.022C129.34 109.682 128 107.089 127.18 104.3H134.82C134 107.089 132.66 109.682 131 112.022ZM123 88.7H117.16C119.078 85.4381 122.15 82.9699 125.8 81.758C124.6 83.9225 123.7 86.2625 123 88.7ZM117.16 104.3H123C123.7 106.738 124.6 109.077 125.8 111.242C122.157 110.017 119.09 107.552 117.16 104.3M115.52 100.4C115.2 99.152 115 97.8455 115 96.5C115 95.1545 115.2 93.848 115.52 92.6H122.28C122.12 93.887 122 95.174 122 96.5C122 97.826 122.12 99.113 122.28 100.4M131 80.9585C132.66 83.2985 134 85.9115 134.82 88.7H127.18C128 85.9115 129.34 83.2985 131 80.9585M144.84 88.7H138.94C138.314 86.2848 137.387 83.9535 136.18 81.758C139.86 82.9865 142.92 85.463 144.84 88.7ZM131 77C119.94 77 111 85.775 111 96.5C111 101.672 113.107 106.632 116.858 110.289C118.715 112.099 120.92 113.536 123.346 114.516C125.773 115.496 128.374 116 131 116C136.304 116 141.391 113.946 145.142 110.289C148.893 106.632 151 101.672 151 96.5C151 93.9392 150.483 91.4035 149.478 89.0377C148.472 86.6718 146.999 84.5222 145.142 82.7114C143.285 80.9007 141.08 79.4643 138.654 78.4843C136.227 77.5044 133.626 77 131 77V77Z"/>
</mask>
<path d="M139.72 100.4C139.88 99.113 140 97.826 140 96.5C140 95.174 139.88 93.887 139.72 92.6H146.48C146.8 93.848 147 95.1545 147 96.5C147 97.8455 146.8 99.152 146.48 100.4M136.18 111.242C137.38 109.077 138.3 106.738 138.94 104.3H144.84C142.902 107.553 139.828 110.017 136.18 111.242M135.68 100.4H126.32C126.12 99.113 126 97.826 126 96.5C126 95.174 126.12 93.8675 126.32 92.6H135.68C135.86 93.8675 136 95.174 136 96.5C136 97.826 135.86 99.113 135.68 100.4ZM131 112.022C129.34 109.682 128 107.089 127.18 104.3H134.82C134 107.089 132.66 109.682 131 112.022ZM123 88.7H117.16C119.078 85.4381 122.15 82.9699 125.8 81.758C124.6 83.9225 123.7 86.2625 123 88.7ZM117.16 104.3H123C123.7 106.738 124.6 109.077 125.8 111.242C122.157 110.017 119.09 107.552 117.16 104.3M115.52 100.4C115.2 99.152 115 97.8455 115 96.5C115 95.1545 115.2 93.848 115.52 92.6H122.28C122.12 93.887 122 95.174 122 96.5C122 97.826 122.12 99.113 122.28 100.4M131 80.9585C132.66 83.2985 134 85.9115 134.82 88.7H127.18C128 85.9115 129.34 83.2985 131 80.9585M144.84 88.7H138.94C138.314 86.2848 137.387 83.9535 136.18 81.758C139.86 82.9865 142.92 85.463 144.84 88.7ZM131 77C119.94 77 111 85.775 111 96.5C111 101.672 113.107 106.632 116.858 110.289C118.715 112.099 120.92 113.536 123.346 114.516C125.773 115.496 128.374 116 131 116C136.304 116 141.391 113.946 145.142 110.289C148.893 106.632 151 101.672 151 96.5C151 93.9392 150.483 91.4035 149.478 89.0377C148.472 86.6718 146.999 84.5222 145.142 82.7114C143.285 80.9007 141.08 79.4643 138.654 78.4843C136.227 77.5044 133.626 77 131 77V77Z" fill="#4D93D2"/>
<path d="M139.72 92.6V90.6H137.456L137.735 92.8467L139.72 92.6ZM146.48 92.6L148.417 92.1032L148.032 90.6H146.48V92.6ZM138.94 104.3V102.3H137.397L137.006 103.792L138.94 104.3ZM144.84 104.3L146.558 105.323L148.359 102.3H144.84V104.3ZM135.68 100.4V102.4H137.42L137.661 100.677L135.68 100.4ZM126.32 100.4L124.344 100.707L124.607 102.4H126.32V100.4ZM126.32 92.6V90.6H124.611L124.344 92.2883L126.32 92.6ZM135.68 92.6L137.66 92.3188L137.416 90.6H135.68V92.6ZM131 112.022L129.369 113.179L131 115.479L132.631 113.179L131 112.022ZM127.18 104.3V102.3H124.507L125.261 104.864L127.18 104.3ZM134.82 104.3L136.739 104.864L137.493 102.3H134.82V104.3ZM123 88.7V90.7H124.506L124.922 89.252L123 88.7ZM117.16 88.7L115.436 87.6864L113.664 90.7H117.16V88.7ZM125.8 81.758L127.549 82.7277L130.034 78.2449L125.17 79.8599L125.8 81.758ZM123 104.3L124.922 103.748L124.506 102.3H123V104.3ZM125.8 111.242L125.162 113.138L130.049 114.781L127.549 110.272L125.8 111.242ZM115.52 92.6V90.6H113.968L113.583 92.1032L115.52 92.6ZM122.28 92.6L124.265 92.8467L124.544 90.6H122.28V92.6ZM134.82 88.7V90.7H137.493L136.739 88.1358L134.82 88.7ZM127.18 88.7L125.261 88.1358L124.507 90.7H127.18V88.7ZM144.84 88.7V90.7H148.352L146.56 87.6797L144.84 88.7ZM138.94 88.7L137.004 89.2018L137.392 90.7H138.94V88.7ZM136.18 81.758L136.813 79.8609L131.965 78.2423L134.427 82.7216L136.18 81.758ZM131 116V118V116ZM141.705 100.647C141.869 99.3229 142 97.9439 142 96.5H138C138 97.7081 137.891 98.9031 137.735 100.153L141.705 100.647ZM142 96.5C142 95.0561 141.869 93.6771 141.705 92.3533L137.735 92.8467C137.891 94.0969 138 95.2919 138 96.5H142ZM139.72 94.6H146.48V90.6H139.72V94.6ZM144.543 93.0968C144.829 94.2149 145 95.3526 145 96.5H149C149 94.9564 148.771 93.4811 148.417 92.1032L144.543 93.0968ZM145 96.5C145 97.6474 144.829 98.7851 144.543 99.9032L148.417 100.897C148.771 99.5189 149 98.0436 149 96.5H145ZM137.929 112.212C139.215 109.892 140.195 107.396 140.874 104.808L137.006 103.792C136.405 106.079 135.545 108.263 134.431 110.272L137.929 112.212ZM138.94 106.3H144.84V102.3H138.94V106.3ZM143.122 103.277C141.433 106.112 138.747 108.271 135.544 109.346L136.816 113.138C140.91 111.764 144.372 108.995 146.558 105.323L143.122 103.277ZM135.68 98.4H126.32V102.4H135.68V98.4ZM128.296 100.093C128.109 98.8866 128 97.704 128 96.5H124C124 97.948 124.131 99.3394 124.344 100.707L128.296 100.093ZM128 96.5C128 95.294 128.109 94.0927 128.296 92.9117L124.344 92.2883C124.131 93.6423 124 95.054 124 96.5H128ZM126.32 94.6H135.68V90.6H126.32V94.6ZM133.7 92.8812C133.874 94.1079 134 95.3092 134 96.5H138C138 95.0388 137.846 93.6271 137.66 92.3188L133.7 92.8812ZM134 96.5C134 97.6895 133.874 98.8707 133.699 100.123L137.661 100.677C137.846 99.3553 138 97.9625 138 96.5H134ZM132.631 110.865C131.079 108.677 129.847 106.281 129.099 103.736L125.261 104.864C126.153 107.896 127.601 110.687 129.369 113.179L132.631 110.865ZM127.18 106.3H134.82V102.3H127.18V106.3ZM132.901 103.736C132.153 106.281 130.921 108.677 129.369 110.865L132.631 113.179C134.399 110.687 135.847 107.896 136.739 104.864L132.901 103.736ZM123 86.7H117.16V90.7H123V86.7ZM118.884 89.7136C120.552 86.8768 123.231 84.7182 126.43 83.6561L125.17 79.8599C121.068 81.2216 117.604 83.9993 115.436 87.6864L118.884 89.7136ZM124.051 80.7883C122.761 83.115 121.809 85.6024 121.078 88.148L124.922 89.252C125.591 86.9226 126.439 84.73 127.549 82.7277L124.051 80.7883ZM117.16 106.3H123V102.3H117.16V106.3ZM121.078 104.852C121.809 107.398 122.761 109.885 124.051 112.212L127.549 110.272C126.439 108.27 125.591 106.077 124.922 103.748L121.078 104.852ZM126.438 109.346C123.241 108.271 120.561 106.112 118.88 103.279L115.44 105.321C117.618 108.992 121.074 111.762 125.162 113.138L126.438 109.346ZM117.457 99.9032C117.171 98.7851 117 97.6474 117 96.5H113C113 98.0436 113.229 99.5189 113.583 100.897L117.457 99.9032ZM117 96.5C117 95.3526 117.171 94.2149 117.457 93.0968L113.583 92.1032C113.229 93.4811 113 94.9564 113 96.5H117ZM115.52 94.6H122.28V90.6H115.52V94.6ZM120.295 92.3533C120.131 93.6771 120 95.0561 120 96.5H124C124 95.2919 124.109 94.0969 124.265 92.8467L120.295 92.3533ZM120 96.5C120 97.9439 120.131 99.3229 120.295 100.647L124.265 100.153C124.109 98.9031 124 97.7081 124 96.5H120ZM129.369 82.1157C130.918 84.2999 132.152 86.7151 132.901 89.2642L136.739 88.1358C135.848 85.1079 134.402 82.2971 132.631 79.8013L129.369 82.1157ZM134.82 86.7H127.18V90.7H134.82V86.7ZM129.099 89.2642C129.848 86.7151 131.082 84.2999 132.631 82.1157L129.369 79.8013C127.598 82.2971 126.152 85.1079 125.261 88.1358L129.099 89.2642ZM144.84 86.7H138.94V90.7H144.84V86.7ZM140.876 88.1982C140.208 85.6214 139.219 83.135 137.933 80.7944L134.427 82.7216C135.555 84.772 136.42 86.9483 137.004 89.2018L140.876 88.1982ZM135.547 83.6551C138.776 84.7331 141.448 86.9012 143.12 89.7203L146.56 87.6797C144.392 84.0248 140.944 81.2399 136.813 79.8609L135.547 83.6551ZM131 75C118.88 75 109 84.6269 109 96.5H113C113 86.9231 121 79 131 79V75ZM109 96.5C109 102.219 111.33 107.693 115.462 111.721L118.254 108.857C114.884 105.571 113 101.125 113 96.5H109ZM115.462 111.721C117.507 113.715 119.932 115.294 122.597 116.37L124.095 112.661C121.908 111.778 119.923 110.484 118.254 108.857L115.462 111.721ZM122.597 116.37C125.263 117.447 128.118 118 131 118V114C128.629 114 126.283 113.545 124.095 112.661L122.597 116.37ZM131 118C136.819 118 142.409 115.747 146.538 111.721L143.746 108.857C140.374 112.144 135.79 114 131 114V118ZM146.538 111.721C150.67 107.693 153 102.219 153 96.5H149C149 101.125 147.116 105.571 143.746 108.857L146.538 111.721ZM153 96.5C153 93.6695 152.428 90.8679 151.318 88.2556L147.637 89.8197C148.537 91.9392 149 94.209 149 96.5H153ZM151.318 88.2556C150.209 85.6436 148.584 83.2735 146.538 81.2794L143.746 84.1434C145.415 85.7708 146.736 87.7001 147.637 89.8197L151.318 88.2556ZM146.538 81.2794C144.493 79.2854 142.068 77.7063 139.403 76.6299L137.905 80.3388C140.092 81.2223 142.077 82.5159 143.746 84.1434L146.538 81.2794ZM139.403 76.6299C136.737 75.5534 133.882 75 131 75V79C133.371 79 135.717 79.4553 137.905 80.3388L139.403 76.6299Z" fill="white" mask="url(#path-2-inside-1_12_50)"/>
</svg>
